# MagicaVoxel @ Ephtracy

# group
g pikachunew

# material
mtllib pikachunew.mtl
usemtl palette

# normals
vn -1 0 0
vn 1 0 0
vn 0 0 1
vn 0 0 -1
vn 0 -1 0
vn 0 1 0

# texcoords
vt 0.00195312 0.5
vt 0.00195312 0.5
vt 0.00195312 0.5   
vt 0.0814844 0.5
vt 0.00485938 0.5   
vt 0.0814844 0.5
vt 0.0332031 0.5
vt 0.0192969 0.5
vt 0.0332031 0.5

# verts
v -23 9 22.5
v -23 9 -15.5
v -23 21 11.5
v -23 21 3.5
v -23 21 -2.5
v -23 21 -10.5
v -23 33 22.5
v -23 33 11.5
v -23 33 3.5
v -23 33 -2.5
v -23 33 -10.5
v -23 33 -15.5
v -22 2 17.5
v -22 2 11.5
v -22 2 -5.5
v -22 2 -11.5
v -22 9 17.5
v -22 9 11.5
v -22 9 -5.5
v -22 9 -11.5
v -21 0 16.5
v -21 0 11.5
v -21 0 -6.5
v -21 0 -11.5
v -21 2 16.5
v -21 2 11.5
v -21 2 -6.5
v -21 2 -11.5
v -20 33 20.5
v -20 33 17.5
v -20 44 20.5
v -20 44 17.5
v -20 49 20.5
v -20 49 17.5
v -12 15 19.5
v -12 15 15.5
v -12 17 19.5
v -12 17 15.5
v -12 19 -15.5
v -12 19 -17.5
v -12 20 -17.5
v -12 20 -18.5
v -12 28 -15.5
v -12 28 -18.5
v -11 21 23.5
v -11 21 22.5
v -11 23 23.5
v -11 23 22.5
v -8 19 22.5
v -8 19 21.5
v -8 19 15.5
v -8 20 22.5
v -8 20 21.5
v -8 20 15.5
v -6 20 -18.5
v -6 20 -19.5
v -6 28 -18.5
v -6 28 -19.5
v -6 28 -20.5
v -6 35 -18.5
v -6 35 -20.5
v -6 42 -18.5
v -6 42 -20.5
v -5 0 -6.5
v -5 0 -11.5
v -5 2 -5.5
v -5 2 -6.5
v -5 9 -5.5
v -5 9 -11.5
v -5 15 22.5
v -5 15 21.5
v -5 15 15.5
v -5 19 22.5
v -5 19 21.5
v -5 19 15.5
v -5 33 20.5
v -5 33 17.5
v -5 44 20.5
v -5 44 17.5
v -5 49 20.5
v -5 49 17.5
v -4 0 16.5
v -4 0 11.5
v -4 2 17.5
v -4 2 16.5
v -4 9 17.5
v -4 9 11.5
v 1 35 -20.5
v 1 35 -21.5
v 1 42 -20.5
v 1 42 -21.5
v 1 42 -22.5
v 1 53 -20.5
v 1 53 -22.5
v 9 42 -22.5
v 9 42 -23.5
v 9 53 -22.5
v 9 53 -23.5
v -14 0 16.5
v -14 0 11.5
v -14 2 17.5
v -14 2 16.5
v -14 9 17.5
v -14 9 11.5
v -13 0 -6.5
v -13 0 -11.5
v -13 2 -5.5
v -13 2 -6.5
v -13 9 -5.5
v -13 9 -11.5
v -13 15 22.5
v -13 15 21.5
v -13 15 15.5
v -13 19 22.5
v -13 19 21.5
v -13 19 15.5
v -13 33 20.5
v -13 33 17.5
v -13 44 20.5
v -13 44 17.5
v -13 49 20.5
v -13 49 17.5
v -10 19 22.5
v -10 19 21.5
v -10 19 15.5
v -10 20 22.5
v -10 20 21.5
v -10 20 15.5
v -7 21 23.5
v -7 21 22.5
v -7 23 23.5
v -7 23 22.5
v -6 15 19.5
v -6 15 15.5
v -6 17 19.5
v -6 17 15.5
v -6 19 -15.5
v -6 19 -17.5
v -6 20 -17.5
v -6 28 -15.5
v -6 28 -17.5
v 1 20 -17.5
v 1 20 -19.5
v 1 28 -17.5
v 1 28 -18.5
v 1 28 -19.5
v 1 28 -20.5
v 1 35 -18.5
v 1 35 -19.5
v 1 35 -20.5
v 1 42 -18.5
v 1 42 -19.5
v 2 33 20.5
v 2 33 17.5
v 2 44 20.5
v 2 44 17.5
v 2 49 20.5
v 2 49 17.5
v 3 0 16.5
v 3 0 11.5
v 3 0 -6.5
v 3 0 -11.5
v 3 2 16.5
v 3 2 11.5
v 3 2 -6.5
v 3 2 -11.5
v 4 2 17.5
v 4 2 11.5
v 4 2 -5.5
v 4 2 -11.5
v 4 9 17.5
v 4 9 11.5
v 4 9 -5.5
v 4 9 -11.5
v 5 9 22.5
v 5 9 -15.5
v 5 21 11.5
v 5 21 3.5
v 5 21 -2.5
v 5 21 -10.5
v 5 33 22.5
v 5 33 11.5
v 5 33 3.5
v 5 33 -2.5
v 5 33 -10.5
v 5 33 -15.5
v 9 35 -19.5
v 9 35 -21.5
v 9 42 -19.5
v 9 42 -20.5
v 9 42 -21.5
v 9 53 -20.5
v 9 53 -21.5
v 23 42 -21.5
v 23 42 -23.5
v 23 53 -21.5
v 23 53 -23.5
v -11 21 23.5
v -11 23 23.5
v -7 21 23.5
v -7 23 23.5
v -23 9 22.5
v -23 33 22.5
v -21 15 22.5
v -21 21 22.5
v -17 23 22.5
v -17 27 22.5
v -16 25 22.5
v -16 27 22.5
v -15 15 22.5
v -15 21 22.5
v -14 25 22.5
v -14 27 22.5
v -13 15 22.5
v -13 19 22.5
v -13 23 22.5
v -13 27 22.5
v -11 21 22.5
v -11 23 22.5
v -10 19 22.5
v -10 20 22.5
v -8 19 22.5
v -8 20 22.5
v -7 21 22.5
v -7 23 22.5
v -5 15 22.5
v -5 19 22.5
v -5 23 22.5
v -5 27 22.5
v -4 25 22.5
v -4 27 22.5
v -3 15 22.5
v -3 21 22.5
v -2 25 22.5
v -2 27 22.5
v -1 23 22.5
v -1 27 22.5
v 3 15 22.5
v 3 21 22.5
v 5 9 22.5
v 5 33 22.5
v -20 33 20.5
v -20 44 20.5
v -20 49 20.5
v -13 33 20.5
v -13 44 20.5
v -13 49 20.5
v -5 33 20.5
v -5 44 20.5
v -5 49 20.5
v 2 33 20.5
v 2 44 20.5
v 2 49 20.5
v -12 15 19.5
v -12 17 19.5
v -6 15 19.5
v -6 17 19.5
v -22 2 17.5
v -22 9 17.5
v -14 2 17.5
v -14 9 17.5
v -4 2 17.5
v -4 9 17.5
v 4 2 17.5
v 4 9 17.5
v -21 0 16.5
v -21 2 16.5
v -14 0 16.5
v -14 2 16.5
v -4 0 16.5
v -4 2 16.5
v 3 0 16.5
v 3 2 16.5
v -13 15 15.5
v -13 19 15.5
v -12 15 15.5
v -12 17 15.5
v -10 19 15.5
v -10 20 15.5
v -8 19 15.5
v -8 20 15.5
v -6 15 15.5
v -6 17 15.5
v -5 15 15.5
v -5 19 15.5
v -22 2 -5.5
v -22 9 -5.5
v -13 2 -5.5
v -13 9 -5.5
v -5 2 -5.5
v -5 9 -5.5
v 4 2 -5.5
v 4 9 -5.5
v -21 0 -6.5
v -21 2 -6.5
v -13 0 -6.5
v -13 2 -6.5
v -5 0 -6.5
v -5 2 -6.5
v 3 0 -6.5
v 3 2 -6.5
v -6 20 -17.5
v -6 28 -17.5
v 1 20 -17.5
v 1 28 -17.5
v -6 28 -18.5
v -6 35 -18.5
v -6 42 -18.5
v 1 28 -18.5
v 1 35 -18.5
v 1 42 -18.5
v 1 35 -19.5
v 1 42 -19.5
v 9 35 -19.5
v 9 42 -19.5
v 1 42 -20.5
v 1 53 -20.5
v 9 42 -20.5
v 9 53 -20.5
v 9 42 -21.5
v 9 53 -21.5
v 23 42 -21.5
v 23 53 -21.5
v -20 33 17.5
v -20 44 17.5
v -20 49 17.5
v -13 33 17.5
v -13 44 17.5
v -13 49 17.5
v -5 33 17.5
v -5 44 17.5
v -5 49 17.5
v 2 33 17.5
v 2 44 17.5
v 2 49 17.5
v -22 2 11.5
v -22 9 11.5
v -21 0 11.5
v -21 2 11.5
v -14 0 11.5
v -14 9 11.5
v -4 0 11.5
v -4 9 11.5
v 3 0 11.5
v 3 2 11.5
v 4 2 11.5
v 4 9 11.5
v -22 2 -11.5
v -22 9 -11.5
v -21 0 -11.5
v -21 2 -11.5
v -13 0 -11.5
v -13 9 -11.5
v -5 0 -11.5
v -5 9 -11.5
v 3 0 -11.5
v 3 2 -11.5
v 4 2 -11.5
v 4 9 -11.5
v -23 9 -15.5
v -23 33 -15.5
v -12 19 -15.5
v -12 28 -15.5
v -6 19 -15.5
v -6 28 -15.5
v 5 9 -15.5
v 5 33 -15.5
v -12 19 -17.5
v -12 20 -17.5
v -6 19 -17.5
v -6 20 -17.5
v -12 20 -18.5
v -12 28 -18.5
v -6 20 -18.5
v -6 28 -18.5
v -6 20 -19.5
v -6 28 -19.5
v 1 20 -19.5
v 1 28 -19.5
v -6 28 -20.5
v -6 35 -20.5
v -6 42 -20.5
v 1 28 -20.5
v 1 35 -20.5
v 1 42 -20.5
v 1 35 -21.5
v 1 42 -21.5
v 9 35 -21.5
v 9 42 -21.5
v 1 42 -22.5
v 1 53 -22.5
v 9 42 -22.5
v 9 53 -22.5
v 9 42 -23.5
v 9 53 -23.5
v 23 42 -23.5
v 23 53 -23.5
v -21 0 16.5
v -14 0 16.5
v -4 0 16.5
v 3 0 16.5
v -21 0 11.5
v -14 0 11.5
v -4 0 11.5
v 3 0 11.5
v -21 0 -6.5
v -13 0 -6.5
v -5 0 -6.5
v 3 0 -6.5
v -21 0 -11.5
v -13 0 -11.5
v -5 0 -11.5
v 3 0 -11.5
v -22 2 17.5
v -14 2 17.5
v -4 2 17.5
v 4 2 17.5
v -21 2 16.5
v -14 2 16.5
v -4 2 16.5
v 3 2 16.5
v -22 2 11.5
v -21 2 11.5
v 3 2 11.5
v 4 2 11.5
v -22 2 -5.5
v -13 2 -5.5
v -5 2 -5.5
v 4 2 -5.5
v -21 2 -6.5
v -13 2 -6.5
v -5 2 -6.5
v 3 2 -6.5
v -22 2 -11.5
v -21 2 -11.5
v 3 2 -11.5
v 4 2 -11.5
v -23 9 22.5
v 5 9 22.5
v -22 9 17.5
v -14 9 17.5
v -4 9 17.5
v 4 9 17.5
v -22 9 11.5
v -14 9 11.5
v -4 9 11.5
v 4 9 11.5
v -22 9 -5.5
v -13 9 -5.5
v -5 9 -5.5
v 4 9 -5.5
v -22 9 -11.5
v -13 9 -11.5
v -5 9 -11.5
v 4 9 -11.5
v -23 9 -15.5
v 5 9 -15.5
v -13 19 22.5
v -10 19 22.5
v -8 19 22.5
v -5 19 22.5
v -13 19 21.5
v -10 19 21.5
v -8 19 21.5
v -5 19 21.5
v -13 19 15.5
v -10 19 15.5
v -8 19 15.5
v -5 19 15.5
v -12 19 -15.5
v -6 19 -15.5
v -12 19 -17.5
v -6 19 -17.5
v -10 20 22.5
v -8 20 22.5
v -10 20 21.5
v -8 20 21.5
v -10 20 15.5
v -8 20 15.5
v -12 20 -17.5
v -6 20 -17.5
v 1 20 -17.5
v -12 20 -18.5
v -6 20 -18.5
v -6 20 -19.5
v 1 20 -19.5
v -11 21 23.5
v -7 21 23.5
v -11 21 22.5
v -7 21 22.5
v -6 28 -19.5
v 1 28 -19.5
v -6 28 -20.5
v 1 28 -20.5
v 1 35 -19.5
v 9 35 -19.5
v 1 35 -20.5
v 1 35 -21.5
v 9 35 -21.5
v 1 42 -21.5
v 9 42 -21.5
v 23 42 -21.5
v 1 42 -22.5
v 9 42 -22.5
v 9 42 -23.5
v 23 42 -23.5
v -13 15 22.5
v -5 15 22.5
v -13 15 21.5
v -5 15 21.5
v -12 15 19.5
v -6 15 19.5
v -13 15 15.5
v -12 15 15.5
v -6 15 15.5
v -5 15 15.5
v -12 17 19.5
v -6 17 19.5
v -12 17 15.5
v -6 17 15.5
v -11 23 23.5
v -7 23 23.5
v -11 23 22.5
v -7 23 22.5
v -12 28 -15.5
v -6 28 -15.5
v -6 28 -17.5
v 1 28 -17.5
v -12 28 -18.5
v -6 28 -18.5
v 1 28 -18.5
v -23 33 22.5
v 5 33 22.5
v -20 33 20.5
v -13 33 20.5
v -5 33 20.5
v 2 33 20.5
v -20 33 17.5
v -13 33 17.5
v -5 33 17.5
v 2 33 17.5
v -23 33 11.5
v 5 33 11.5
v -23 33 3.5
v 5 33 3.5
v -23 33 -2.5
v 5 33 -2.5
v -23 33 -10.5
v 5 33 -10.5
v -23 33 -15.5
v 5 33 -15.5
v -6 42 -18.5
v 1 42 -18.5
v 1 42 -19.5
v 9 42 -19.5
v -6 42 -20.5
v 1 42 -20.5
v 9 42 -20.5
v -20 49 20.5
v -13 49 20.5
v -5 49 20.5
v 2 49 20.5
v -20 49 17.5
v -13 49 17.5
v -5 49 17.5
v 2 49 17.5
v 1 53 -20.5
v 9 53 -20.5
v 9 53 -21.5
v 23 53 -21.5
v 1 53 -22.5
v 9 53 -22.5
v 9 53 -23.5
v 23 53 -23.5

# faces
f 3/8/1 2/8/1 1/8/1
f 4/8/1 2/8/1 3/8/1
f 5/8/1 2/8/1 4/8/1
f 6/8/1 2/8/1 5/8/1
f 7/8/1 3/8/1 1/8/1
f 8/4/1 4/4/1 3/4/1
f 8/8/1 3/8/1 7/8/1
f 9/8/1 5/8/1 4/8/1
f 9/4/1 4/4/1 8/4/1
f 10/4/1 6/4/1 5/4/1
f 10/8/1 5/8/1 9/8/1
f 11/8/1 2/8/1 6/8/1
f 11/4/1 6/4/1 10/4/1
f 12/8/1 2/8/1 11/8/1
f 17/8/1 14/8/1 13/8/1
f 18/8/1 14/8/1 17/8/1
f 19/8/1 16/8/1 15/8/1
f 20/8/1 16/8/1 19/8/1
f 25/8/1 22/8/1 21/8/1
f 26/8/1 22/8/1 25/8/1
f 27/8/1 24/8/1 23/8/1
f 28/8/1 24/8/1 27/8/1
f 31/8/1 30/8/1 29/8/1
f 32/8/1 30/8/1 31/8/1
f 33/3/1 32/3/1 31/3/1
f 34/3/1 32/3/1 33/3/1
f 37/7/1 36/7/1 35/7/1
f 38/7/1 36/7/1 37/7/1
f 41/4/1 40/4/1 39/4/1
f 43/4/1 41/4/1 39/4/1
f 43/4/1 42/4/1 41/4/1
f 44/4/1 42/4/1 43/4/1
f 47/2/1 46/2/1 45/2/1
f 48/2/1 46/2/1 47/2/1
f 52/8/1 50/8/1 49/8/1
f 53/6/1 51/6/1 50/6/1
f 53/8/1 50/8/1 52/8/1
f 54/6/1 51/6/1 53/6/1
f 57/4/1 56/4/1 55/4/1
f 58/4/1 56/4/1 57/4/1
f 60/4/1 58/4/1 57/4/1
f 60/4/1 59/4/1 58/4/1
f 61/4/1 59/4/1 60/4/1
f 62/8/1 61/8/1 60/8/1
f 63/8/1 61/8/1 62/8/1
f 67/8/1 65/8/1 64/8/1
f 68/8/1 67/8/1 66/8/1
f 69/8/1 65/8/1 67/8/1
f 69/8/1 67/8/1 68/8/1
f 73/8/1 71/8/1 70/8/1
f 74/6/1 72/6/1 71/6/1
f 74/8/1 71/8/1 73/8/1
f 75/6/1 72/6/1 74/6/1
f 78/8/1 77/8/1 76/8/1
f 79/8/1 77/8/1 78/8/1
f 80/3/1 79/3/1 78/3/1
f 81/3/1 79/3/1 80/3/1
f 85/8/1 83/8/1 82/8/1
f 86/8/1 85/8/1 84/8/1
f 87/8/1 83/8/1 85/8/1
f 87/8/1 85/8/1 86/8/1
f 90/8/1 89/8/1 88/8/1
f 91/8/1 89/8/1 90/8/1
f 93/8/1 91/8/1 90/8/1
f 93/8/1 92/8/1 91/8/1
f 94/8/1 92/8/1 93/8/1
f 97/8/1 96/8/1 95/8/1
f 98/8/1 96/8/1 97/8/1
f 99/8/2 100/8/2 102/8/2
f 101/8/2 102/8/2 103/8/2
f 102/8/2 100/8/2 104/8/2
f 103/8/2 102/8/2 104/8/2
f 105/8/2 106/8/2 108/8/2
f 107/8/2 108/8/2 109/8/2
f 108/8/2 106/8/2 110/8/2
f 109/8/2 108/8/2 110/8/2
f 111/8/2 112/8/2 114/8/2
f 112/6/2 113/6/2 115/6/2
f 114/8/2 112/8/2 115/8/2
f 115/6/2 113/6/2 116/6/2
f 117/8/2 118/8/2 119/8/2
f 119/8/2 118/8/2 120/8/2
f 119/3/2 120/3/2 121/3/2
f 121/3/2 120/3/2 122/3/2
f 123/8/2 124/8/2 126/8/2
f 124/6/2 125/6/2 127/6/2
f 126/8/2 124/8/2 127/8/2
f 127/6/2 125/6/2 128/6/2
f 129/2/2 130/2/2 131/2/2
f 131/2/2 130/2/2 132/2/2
f 133/7/2 134/7/2 135/7/2
f 135/7/2 134/7/2 136/7/2
f 137/4/2 138/4/2 139/4/2
f 137/4/2 139/4/2 140/4/2
f 140/4/2 139/4/2 141/4/2
f 142/4/2 143/4/2 144/4/2
f 144/4/2 143/4/2 145/4/2
f 145/4/2 143/4/2 146/4/2
f 146/4/2 147/4/2 148/4/2
f 145/4/2 146/4/2 148/4/2
f 148/4/2 147/4/2 149/4/2
f 149/4/2 147/4/2 150/4/2
f 148/8/2 149/8/2 151/8/2
f 151/8/2 149/8/2 152/8/2
f 153/8/2 154/8/2 155/8/2
f 155/8/2 154/8/2 156/8/2
f 155/3/2 156/3/2 157/3/2
f 157/3/2 156/3/2 158/3/2
f 159/8/2 160/8/2 163/8/2
f 163/8/2 160/8/2 164/8/2
f 161/8/2 162/8/2 165/8/2
f 165/8/2 162/8/2 166/8/2
f 167/8/2 168/8/2 171/8/2
f 171/8/2 168/8/2 172/8/2
f 169/8/2 170/8/2 173/8/2
f 173/8/2 170/8/2 174/8/2
f 175/8/2 176/8/2 177/8/2
f 177/8/2 176/8/2 178/8/2
f 178/8/2 176/8/2 179/8/2
f 179/8/2 176/8/2 180/8/2
f 175/8/2 177/8/2 181/8/2
f 177/4/2 178/4/2 182/4/2
f 181/8/2 177/8/2 182/8/2
f 178/8/2 179/8/2 183/8/2
f 182/4/2 178/4/2 183/4/2
f 179/4/2 180/4/2 184/4/2
f 183/8/2 179/8/2 184/8/2
f 180/8/2 176/8/2 185/8/2
f 184/4/2 180/4/2 185/4/2
f 185/8/2 176/8/2 186/8/2
f 187/8/2 188/8/2 189/8/2
f 189/8/2 188/8/2 190/8/2
f 190/8/2 188/8/2 191/8/2
f 190/8/2 191/8/2 192/8/2
f 192/8/2 191/8/2 193/8/2
f 194/8/2 195/8/2 196/8/2
f 196/8/2 195/8/2 197/8/2
f 200/2/3 199/2/3 198/2/3
f 201/2/3 199/2/3 200/2/3
f 204/8/3 203/8/3 202/8/3
f 205/8/3 203/8/3 204/8/3
f 206/8/3 203/8/3 205/8/3
f 207/8/3 203/8/3 206/8/3
f 208/1/3 207/1/3 206/1/3
f 209/8/3 203/8/3 207/8/3
f 209/1/3 207/1/3 208/1/3
f 210/8/3 204/8/3 202/8/3
f 210/5/3 205/5/3 204/5/3
f 211/8/3 206/8/3 205/8/3
f 211/5/3 205/5/3 210/5/3
f 212/9/3 209/9/3 208/9/3
f 212/1/3 208/1/3 206/1/3
f 213/8/3 203/8/3 209/8/3
f 213/9/3 209/9/3 212/9/3
f 214/8/3 210/8/3 202/8/3
f 214/8/3 211/8/3 210/8/3
f 215/8/3 211/8/3 214/8/3
f 216/1/3 212/1/3 206/1/3
f 216/8/3 211/8/3 215/8/3
f 216/8/3 206/8/3 211/8/3
f 216/1/3 213/1/3 212/1/3
f 217/8/3 203/8/3 213/8/3
f 217/1/3 213/1/3 216/1/3
f 218/8/3 216/8/3 215/8/3
f 218/8/3 217/8/3 216/8/3
f 219/8/3 217/8/3 218/8/3
f 220/8/3 218/8/3 215/8/3
f 221/8/3 218/8/3 220/8/3
f 223/8/3 218/8/3 221/8/3
f 224/8/3 218/8/3 223/8/3
f 224/8/3 223/8/3 222/8/3
f 225/8/3 217/8/3 219/8/3
f 226/8/3 214/8/3 202/8/3
f 227/8/3 225/8/3 224/8/3
f 227/8/3 224/8/3 222/8/3
f 228/8/3 217/8/3 225/8/3
f 228/8/3 225/8/3 227/8/3
f 229/8/3 203/8/3 217/8/3
f 229/8/3 217/8/3 228/8/3
f 230/1/3 229/1/3 228/1/3
f 231/8/3 203/8/3 229/8/3
f 231/1/3 229/1/3 230/1/3
f 232/8/3 228/8/3 227/8/3
f 232/8/3 226/8/3 202/8/3
f 232/8/3 227/8/3 226/8/3
f 233/8/3 228/8/3 232/8/3
f 234/9/3 231/9/3 230/9/3
f 234/1/3 230/1/3 228/1/3
f 235/8/3 203/8/3 231/8/3
f 235/9/3 231/9/3 234/9/3
f 236/1/3 234/1/3 228/1/3
f 236/8/3 228/8/3 233/8/3
f 236/1/3 235/1/3 234/1/3
f 237/8/3 203/8/3 235/8/3
f 237/1/3 235/1/3 236/1/3
f 238/8/3 232/8/3 202/8/3
f 238/5/3 233/5/3 232/5/3
f 239/8/3 236/8/3 233/8/3
f 239/5/3 233/5/3 238/5/3
f 239/8/3 237/8/3 236/8/3
f 240/8/3 238/8/3 202/8/3
f 240/8/3 239/8/3 238/8/3
f 241/8/3 237/8/3 239/8/3
f 241/8/3 239/8/3 240/8/3
f 241/8/3 203/8/3 237/8/3
f 245/8/3 243/8/3 242/8/3
f 246/3/3 244/3/3 243/3/3
f 246/8/3 243/8/3 245/8/3
f 247/3/3 244/3/3 246/3/3
f 251/8/3 249/8/3 248/8/3
f 252/3/3 250/3/3 249/3/3
f 252/8/3 249/8/3 251/8/3
f 253/3/3 250/3/3 252/3/3
f 256/7/3 255/7/3 254/7/3
f 257/7/3 255/7/3 256/7/3
f 260/8/3 259/8/3 258/8/3
f 261/8/3 259/8/3 260/8/3
f 264/8/3 263/8/3 262/8/3
f 265/8/3 263/8/3 264/8/3
f 268/8/3 267/8/3 266/8/3
f 269/8/3 267/8/3 268/8/3
f 272/8/3 271/8/3 270/8/3
f 273/8/3 271/8/3 272/8/3
f 276/6/3 275/6/3 274/6/3
f 277/6/3 275/6/3 276/6/3
f 278/6/3 275/6/3 277/6/3
f 280/6/3 278/6/3 277/6/3
f 280/6/3 279/6/3 278/6/3
f 281/6/3 279/6/3 280/6/3
f 283/6/3 280/6/3 277/6/3
f 284/6/3 283/6/3 282/6/3
f 285/6/3 280/6/3 283/6/3
f 285/6/3 283/6/3 284/6/3
f 288/8/3 287/8/3 286/8/3
f 289/8/3 287/8/3 288/8/3
f 292/8/3 291/8/3 290/8/3
f 293/8/3 291/8/3 292/8/3
f 296/8/3 295/8/3 294/8/3
f 297/8/3 295/8/3 296/8/3
f 300/8/3 299/8/3 298/8/3
f 301/8/3 299/8/3 300/8/3
f 304/4/3 303/4/3 302/4/3
f 305/4/3 303/4/3 304/4/3
f 309/4/3 307/4/3 306/4/3
f 310/8/3 308/8/3 307/8/3
f 310/4/3 307/4/3 309/4/3
f 311/8/3 308/8/3 310/8/3
f 314/8/3 313/8/3 312/8/3
f 315/8/3 313/8/3 314/8/3
f 318/8/3 317/8/3 316/8/3
f 319/8/3 317/8/3 318/8/3
f 322/8/3 321/8/3 320/8/3
f 323/8/3 321/8/3 322/8/3
f 324/8/4 325/8/4 327/8/4
f 325/3/4 326/3/4 328/3/4
f 327/8/4 325/8/4 328/8/4
f 328/3/4 326/3/4 329/3/4
f 330/8/4 331/8/4 333/8/4
f 331/3/4 332/3/4 334/3/4
f 333/8/4 331/8/4 334/8/4
f 334/3/4 332/3/4 335/3/4
f 336/8/4 337/8/4 339/8/4
f 338/8/4 339/8/4 340/8/4
f 339/8/4 337/8/4 341/8/4
f 340/8/4 339/8/4 341/8/4
f 342/8/4 343/8/4 344/8/4
f 344/8/4 343/8/4 345/8/4
f 345/8/4 343/8/4 346/8/4
f 346/8/4 343/8/4 347/8/4
f 348/8/4 349/8/4 351/8/4
f 350/8/4 351/8/4 352/8/4
f 351/8/4 349/8/4 353/8/4
f 352/8/4 351/8/4 353/8/4
f 354/8/4 355/8/4 356/8/4
f 356/8/4 355/8/4 357/8/4
f 357/8/4 355/8/4 358/8/4
f 358/8/4 355/8/4 359/8/4
f 360/8/4 361/8/4 362/8/4
f 362/8/4 361/8/4 363/8/4
f 360/8/4 362/8/4 364/8/4
f 363/8/4 361/8/4 365/8/4
f 360/8/4 364/8/4 366/8/4
f 364/8/4 365/8/4 366/8/4
f 365/8/4 361/8/4 367/8/4
f 366/8/4 365/8/4 367/8/4
f 368/4/4 369/4/4 370/4/4
f 370/4/4 369/4/4 371/4/4
f 372/4/4 373/4/4 374/4/4
f 374/4/4 373/4/4 375/4/4
f 376/4/4 377/4/4 378/4/4
f 378/4/4 377/4/4 379/4/4
f 380/4/4 381/4/4 383/4/4
f 381/8/4 382/8/4 384/8/4
f 383/4/4 381/4/4 384/4/4
f 384/8/4 382/8/4 385/8/4
f 386/8/4 387/8/4 388/8/4
f 388/8/4 387/8/4 389/8/4
f 390/8/4 391/8/4 392/8/4
f 392/8/4 391/8/4 393/8/4
f 394/8/4 395/8/4 396/8/4
f 396/8/4 395/8/4 397/8/4
f 402/8/5 399/8/5 398/8/5
f 403/8/5 399/8/5 402/8/5
f 404/8/5 401/8/5 400/8/5
f 405/8/5 401/8/5 404/8/5
f 410/8/5 407/8/5 406/8/5
f 411/8/5 407/8/5 410/8/5
f 412/8/5 409/8/5 408/8/5
f 413/8/5 409/8/5 412/8/5
f 418/8/5 415/8/5 414/8/5
f 419/8/5 415/8/5 418/8/5
f 420/8/5 417/8/5 416/8/5
f 421/8/5 417/8/5 420/8/5
f 422/8/5 418/8/5 414/8/5
f 423/8/5 418/8/5 422/8/5
f 424/8/5 417/8/5 421/8/5
f 425/8/5 417/8/5 424/8/5
f 430/8/5 427/8/5 426/8/5
f 431/8/5 427/8/5 430/8/5
f 432/8/5 429/8/5 428/8/5
f 433/8/5 429/8/5 432/8/5
f 434/8/5 430/8/5 426/8/5
f 435/8/5 430/8/5 434/8/5
f 436/8/5 429/8/5 433/8/5
f 437/8/5 429/8/5 436/8/5
f 440/8/5 439/8/5 438/8/5
f 441/8/5 439/8/5 440/8/5
f 442/8/5 439/8/5 441/8/5
f 443/8/5 439/8/5 442/8/5
f 444/8/5 440/8/5 438/8/5
f 445/8/5 442/8/5 441/8/5
f 446/8/5 442/8/5 445/8/5
f 447/8/5 439/8/5 443/8/5
f 448/8/5 446/8/5 445/8/5
f 448/8/5 447/8/5 446/8/5
f 448/8/5 444/8/5 438/8/5
f 448/8/5 445/8/5 444/8/5
f 449/8/5 447/8/5 448/8/5
f 450/8/5 447/8/5 449/8/5
f 451/8/5 439/8/5 447/8/5
f 451/8/5 447/8/5 450/8/5
f 452/8/5 448/8/5 438/8/5
f 453/8/5 450/8/5 449/8/5
f 454/8/5 450/8/5 453/8/5
f 455/8/5 439/8/5 451/8/5
f 456/8/5 452/8/5 438/8/5
f 456/8/5 455/8/5 454/8/5
f 456/8/5 454/8/5 453/8/5
f 456/8/5 453/8/5 452/8/5
f 457/8/5 439/8/5 455/8/5
f 457/8/5 455/8/5 456/8/5
f 462/8/5 459/8/5 458/8/5
f 463/8/5 459/8/5 462/8/5
f 464/8/5 461/8/5 460/8/5
f 465/8/5 461/8/5 464/8/5
f 466/6/5 463/6/5 462/6/5
f 467/6/5 463/6/5 466/6/5
f 468/6/5 465/6/5 464/6/5
f 469/6/5 465/6/5 468/6/5
f 472/4/5 471/4/5 470/4/5
f 473/4/5 471/4/5 472/4/5
f 476/8/5 475/8/5 474/8/5
f 477/8/5 475/8/5 476/8/5
f 478/6/5 477/6/5 476/6/5
f 479/6/5 477/6/5 478/6/5
f 483/4/5 481/4/5 480/4/5
f 483/4/5 482/4/5 481/4/5
f 484/4/5 482/4/5 483/4/5
f 485/4/5 482/4/5 484/4/5
f 486/4/5 482/4/5 485/4/5
f 489/2/5 488/2/5 487/2/5
f 490/2/5 488/2/5 489/2/5
f 493/4/5 492/4/5 491/4/5
f 494/4/5 492/4/5 493/4/5
f 497/8/5 496/8/5 495/8/5
f 498/8/5 496/8/5 497/8/5
f 499/8/5 496/8/5 498/8/5
f 503/8/5 501/8/5 500/8/5
f 503/8/5 502/8/5 501/8/5
f 504/8/5 502/8/5 503/8/5
f 505/8/5 502/8/5 504/8/5
f 506/8/5 502/8/5 505/8/5
f 507/8/6 508/8/6 509/8/6
f 509/8/6 508/8/6 510/8/6
f 509/6/6 510/6/6 511/6/6
f 511/6/6 510/6/6 512/6/6
f 509/6/6 511/6/6 513/6/6
f 513/6/6 511/6/6 514/6/6
f 512/6/6 510/6/6 515/6/6
f 515/6/6 510/6/6 516/6/6
f 517/7/6 518/7/6 519/7/6
f 519/7/6 518/7/6 520/7/6
f 521/2/6 522/2/6 523/2/6
f 523/2/6 522/2/6 524/2/6
f 525/4/6 526/4/6 527/4/6
f 525/4/6 527/4/6 529/4/6
f 527/4/6 528/4/6 529/4/6
f 529/4/6 528/4/6 530/4/6
f 530/4/6 528/4/6 531/4/6
f 532/8/6 533/8/6 534/8/6
f 534/8/6 533/8/6 535/8/6
f 535/8/6 533/8/6 536/8/6
f 536/8/6 533/8/6 537/8/6
f 532/8/6 534/8/6 538/8/6
f 535/8/6 536/8/6 539/8/6
f 539/8/6 536/8/6 540/8/6
f 537/8/6 533/8/6 541/8/6
f 539/8/6 540/8/6 542/8/6
f 540/8/6 541/8/6 542/8/6
f 532/8/6 538/8/6 542/8/6
f 538/8/6 539/8/6 542/8/6
f 541/8/6 533/8/6 543/8/6
f 542/8/6 541/8/6 543/8/6
f 542/4/6 543/4/6 544/4/6
f 544/4/6 543/4/6 545/4/6
f 544/8/6 545/8/6 546/8/6
f 546/8/6 545/8/6 547/8/6
f 546/4/6 547/4/6 548/4/6
f 548/4/6 547/4/6 549/4/6
f 548/8/6 549/8/6 550/8/6
f 550/8/6 549/8/6 551/8/6
f 552/8/6 553/8/6 554/8/6
f 552/8/6 554/8/6 556/8/6
f 554/8/6 555/8/6 556/8/6
f 556/8/6 555/8/6 557/8/6
f 557/8/6 555/8/6 558/8/6
f 559/3/6 560/3/6 563/3/6
f 563/3/6 560/3/6 564/3/6
f 561/3/6 562/3/6 565/3/6
f 565/3/6 562/3/6 566/3/6
f 567/8/6 568/8/6 569/8/6
f 567/8/6 569/8/6 571/8/6
f 569/8/6 570/8/6 571/8/6
f 571/8/6 570/8/6 572/8/6
f 572/8/6 570/8/6 573/8/6
f 573/8/6 570/8/6 574/8/6
